name ./resultDataOpenSim/trcMotMarkerGrf/sub10/grf-13-05.mot
datacolumns 19
datarows 10
range 0.48800000 0.52400000
endheader

                time	     ground_force_vx	     ground_force_vy	     ground_force_vz	     ground_force_px	     ground_force_py	     ground_force_pz	   l_ground_force_vx	   l_ground_force_vy	   l_ground_force_vz	   l_ground_force_px	   l_ground_force_py	   l_ground_force_pz	     ground_torque_x	     ground_torque_y	     ground_torque_z	   l_ground_torque_x	   l_ground_torque_y	   l_ground_torque_z	
          0.48800000	         86.90734613	        589.92235567	        -18.66798529	         -0.79638774	          0.00000000	         -0.04907982	          0.00000000	          0.00000000	          0.00000000	          0.00000000	          0.00000000	          0.00000000	          0.00000000	          4.24665989	          0.00000000	          0.00000000	          0.00000000	          0.00000000	
          0.49200000	         87.33166606	        599.38628013	        -20.53875512	         -0.79299402	          0.00000000	         -0.04883926	          0.00000000	          0.00000000	          0.00000000	          0.00000000	          0.00000000	          0.00000000	          0.00000000	          4.06134166	          0.00000000	          0.00000000	          0.00000000	          0.00000000	
          0.49600000	         87.57006323	        608.42450658	        -21.93081847	         -0.78939834	          0.00000000	         -0.04864780	          0.00000000	          0.00000000	          0.00000000	          0.00000000	          0.00000000	          0.00000000	          0.00000000	          3.88224485	          0.00000000	          0.00000000	          0.00000000	          0.00000000	
          0.50000000	         87.49326909	        616.95399160	        -22.66224184	         -0.78554940	          0.00000000	         -0.04852451	          0.00000000	          0.00000000	          0.00000000	          0.00000000	          0.00000000	          0.00000000	          0.00000000	          3.72167220	          0.00000000	          0.00000000	          0.00000000	          0.00000000	
          0.50400000	         87.06834232	        625.25283465	        -22.66624791	         -0.78153148	          0.00000000	         -0.04847142	          0.00000000	          0.00000000	          0.00000000	          0.00000000	          0.00000000	          0.00000000	          0.00000000	          3.58575467	          0.00000000	          0.00000000	          0.00000000	          0.00000000	
          0.50800000	         86.37591895	        633.73148309	        -21.98768184	         -0.77752099	          0.00000000	         -0.04848032	          0.00000000	          0.00000000	          0.00000000	          0.00000000	          0.00000000	          0.00000000	          0.00000000	          3.47385892	          0.00000000	          0.00000000	          0.00000000	          0.00000000	
          0.51200000	         85.55560050	        642.63412908	        -20.76638669	         -0.77360113	          0.00000000	         -0.04855989	          0.00000000	          0.00000000	          0.00000000	          0.00000000	          0.00000000	          0.00000000	          0.00000000	          3.37938416	          0.00000000	          0.00000000	          0.00000000	          0.00000000	
          0.51600000	         84.80019412	        651.96489977	        -19.19860310	         -0.76975885	          0.00000000	         -0.04873850	          0.00000000	          0.00000000	          0.00000000	          0.00000000	          0.00000000	          0.00000000	          0.00000000	          3.29199290	          0.00000000	          0.00000000	          0.00000000	          0.00000000	
          0.52000000	         84.38951302	        661.69345589	        -17.49421260	         -0.76599615	          0.00000000	         -0.04903370	          0.00000000	          0.00000000	          0.00000000	          0.00000000	          0.00000000	          0.00000000	          0.00000000	          3.20074693	          0.00000000	          0.00000000	          0.00000000	          0.00000000	
          0.52400000	         84.67243331	        671.97629151	        -15.83076392	         -0.76242821	          0.00000000	         -0.04942258	          0.00000000	          0.00000000	          0.00000000	          0.00000000	          0.00000000	          0.00000000	          0.00000000	          3.09729720	          0.00000000	          0.00000000	          0.00000000	          0.00000000	
